# xmcd
#
# Track frame offsets: 
#        187
#        11822
#        22680
#        32542
#        45742
#        57857
#        68937
#        80920
#        96247
#        109920
#        121692
#        133900
#        144972
#        157625
#        168327
#        185122
#        200200
#        213007
#        226202
#        242287
#        255700
#        267410
#        278377
#        300347
#        315895
#
# Disc length: 4436 seconds
#
# Revision: 2
# Processed by: cddbd v1.4PL0 Copyright (c) Steve Scherf et al.
# Submitted via: ExactAudioCopy v0.90a11
#
DISCID=47115219
DTITLE=Conway Twitty - Silver Anniversary Collection
DYEAR=1900
DGENRE=
TTITLE0=Guess My Eyes Were Bigger Than My Heart
TTITLE1=Look into My Teardrops
TTITLE2=I Don't Want to Be with Me
TTITLE3=The Image of Me
TTITLE4=To See My Angel Cry
TTITLE5=Hello Darlin'
TTITLE6=I Can't See Me Without You
TTITLE7=On Your Last Date
TTITLE8=You've Never Been This Far Before
TTITLE9=I'm Not Through Loving You Yet
TTITLE10=Linda on My Mind
TTITLE11=She Gives It All to Me
TTITLE12=You In My Mind
TTITLE13=Boogie Grass Band
TTITLE14=Don't Take It Away
TTITLE15=I'd Just Love to Lay You Down
TTITLE16=Tight Fittin' Jeans
TTITLE17=Slow Hand
TTITLE18=The Rose
TTITLE19=I Don't Know a Thing About Love
TTITLE20=Don't Call Him a Cowboy
TTITLE21=Desperado Love
TTITLE22=That's My Job
TTITLE23=Goodbye Time
TTITLE24=She's Got a Single Thing in Mind
EXTD=
EXTT0=
EXTT1=
EXTT2=
EXTT3=
EXTT4=
EXTT5=
EXTT6=
EXTT7=
EXTT8=
EXTT9=
EXTT10=
EXTT11=
EXTT12=
EXTT13=
EXTT14=
EXTT15=
EXTT16=
EXTT17=
EXTT18=
EXTT19=
EXTT20=
EXTT21=
EXTT22=
EXTT23=
EXTT24=
PLAYORDER=
